HIERARCHY
ROOT Hips
{
	OFFSET 0.000000 0.000000 0.000000
	CHANNELS 6 Xposition Yposition Zposition Zrotation Yrotation Xrotation 
	JOINT LHipJoint
	{
		OFFSET 0.000000 0.000000 0.000000
		CHANNELS 3 Zrotation Yrotation Xrotation
		JOINT LeftUpLeg
		{
			OFFSET 1.363060 -1.794630 0.839290
			CHANNELS 3 Zrotation Yrotation Xrotation
			JOINT LeftLeg
			{
				OFFSET 2.448110 -6.726130 0.000000
				CHANNELS 3 Zrotation Yrotation Xrotation
				JOINT LeftFoot
				{
					OFFSET 2.562200 -7.039590 0.000000
					CHANNELS 3 Zrotation Yrotation Xrotation
					JOINT LeftToeBase
					{
						OFFSET 0.157640 -0.433110 2.322550
						CHANNELS 3 Zrotation Yrotation Xrotation
						End Site
						{
							OFFSET 0.000000 0.000000 0.000000
						}
					}
				}
			}
		}
	}
	JOINT RHipJoint
	{
		OFFSET 0.000000 0.000000 0.000000
		CHANNELS 3 Zrotation Yrotation Xrotation
		JOINT RightUpLeg
		{
			OFFSET -1.305520 -1.794630 0.839290
			CHANNELS 3 Zrotation Yrotation Xrotation
			JOINT RightLeg
			{
				OFFSET -2.542530 -6.985550 0.000000
				CHANNELS 3 Zrotation Yrotation Xrotation
				JOINT RightFoot
				{
					OFFSET -2.568260 -7.056230 0.000000
					CHANNELS 3 Zrotation Yrotation Xrotation
					JOINT RightToeBase
					{
						OFFSET -0.164730 -0.452590 2.363150
						CHANNELS 3 Zrotation Yrotation Xrotation
						End Site
						{
							OFFSET 0.000000 0.000000 0.000000
						}
					}
				}
			}
		}
	}
	JOINT LowerBack
	{
		OFFSET 0.000000 0.000000 0.000000
		CHANNELS 3 Zrotation Yrotation Xrotation
		JOINT Spine
		{
			OFFSET 0.028270 2.035590 -0.193380
			CHANNELS 3 Zrotation Yrotation Xrotation
			JOINT Spine1
			{
				OFFSET 0.056720 2.048850 -0.042750
				CHANNELS 3 Zrotation Yrotation Xrotation
				JOINT Neck
				{
					OFFSET 0.000000 0.000000 0.000000
					CHANNELS 3 Zrotation Yrotation Xrotation
					JOINT Neck1
					{
						OFFSET -0.054170 1.746240 0.172020
						CHANNELS 3 Zrotation Yrotation Xrotation
						JOINT Head
						{
							OFFSET 0.104070 1.761360 -0.123970
							CHANNELS 3 Zrotation Yrotation Xrotation
							End Site
							{
								OFFSET 0.000000 0.000000 0.000000
							}
						}
					}
				}
				JOINT LeftShoulder
				{
					OFFSET 0.000000 0.000000 0.000000
					CHANNELS 3 Zrotation Yrotation Xrotation
					JOINT LeftArm
					{
						OFFSET 3.362410 1.200890 -0.311210
						CHANNELS 3 Zrotation Yrotation Xrotation
						JOINT LeftForeArm
						{
							OFFSET 4.983000 -0.000000 -0.000000
							CHANNELS 3 Zrotation Yrotation Xrotation
							JOINT LeftHand
							{
								OFFSET 3.483560 -0.000000 -0.000000
								CHANNELS 3 Zrotation Yrotation Xrotation
								JOINT LeftFingerBase
								{
									OFFSET 0.000000 0.000000 0.000000
									CHANNELS 3 Zrotation Yrotation Xrotation
									JOINT LeftHandIndex1
									{
										OFFSET 0.715260 -0.000000 -0.000000
										CHANNELS 3 Zrotation Yrotation Xrotation
										End Site
										{
											OFFSET 0.000000 0.000000 0.000000
										}
									}
								}
								JOINT LThumb
								{
									OFFSET 0.000000 0.000000 0.000000
									CHANNELS 3 Zrotation Yrotation Xrotation
									End Site
									{
										OFFSET 0.000000 0.000000 0.000000
									}
								}
							}
						}
					}
				}
				JOINT RightShoulder
				{
					OFFSET 0.000000 0.000000 0.000000
					CHANNELS 3 Zrotation Yrotation Xrotation
					JOINT RightArm
					{
						OFFSET -3.136600 1.374050 -0.404650
						CHANNELS 3 Zrotation Yrotation Xrotation
						JOINT RightForeArm
						{
							OFFSET -5.241900 -0.000000 -0.000000
							CHANNELS 3 Zrotation Yrotation Xrotation
							JOINT RightHand
							{
								OFFSET -3.444170 -0.000000 -0.000000
								CHANNELS 3 Zrotation Yrotation Xrotation
								JOINT RightFingerBase
								{
									OFFSET 0.000000 0.000000 0.000000
									CHANNELS 3 Zrotation Yrotation Xrotation
									JOINT RightHandIndex1
									{
										OFFSET -0.622530 -0.000000 -0.000000
										CHANNELS 3 Zrotation Yrotation Xrotation
										End Site
										{
											OFFSET 0.000000 0.000000 0.000000
										}
									}
								}
								JOINT RThumb
								{
									OFFSET 0.000000 0.000000 0.000000
									CHANNELS 3 Zrotation Yrotation Xrotation
									End Site
									{
										OFFSET 0.000000 0.000000 0.000000
									}
								}
							}
						}
					}
				}
			}
		}
	}
}
MOTION
Frames: 11
Frame Time: 0.008333
2.758065 15.263494 1.880704 135.064063 -82.260242 -67.140831 -8.216440 2.178194 2.208805 -24.289416 -18.063540 -101.990196 -4.867877 6.227329 51.480482 0.595856 -2.180177 -14.280183 -0.070500 0.000000 -44.597700 9.165277 0.385891 4.402219 9.451919 9.579065 -103.450590 4.366735 -6.052657 49.413098 0.024892 5.976670 -17.587240 -0.028400 0.000001 -54.467300 -1.083675 -1.934560 -1.077986 -0.577574 -1.942006 -3.204023 -2.941809 -2.004626 -0.683591 3.292797 -6.180424 -6.606461 -1.069644 -0.046735 -0.549050 0.000000 0.000000 0.000000 6.008766 5.563005 3.534547 -53.514338 -4.907142 3.219536 0.142702 -89.404714 -0.052934 4.317407 10.177320 0.392610 -0.200391 0.260757 0.000000 0.000000 0.000000 0.000000 0.000000 0.000000 0.000000 -1.088366 -1.158619 0.853269 58.436802 22.888403 -1.052177 179.958504 88.850574 179.930577 -9.590396 7.354981 -0.679974 0.196665 -0.579395 0.000000 0.000000 0.000000 0.000000 0.000000 0.000000 0.000000 
2.669214 15.164946 1.876747 136.584881 -82.375120 -68.311689 -8.230226 2.192859 2.260525 -24.059894 -18.378498 -103.246699 -4.718168 6.425971 52.640110 0.645116 -2.009845 -14.440067 -0.079800 0.000000 -43.823000 9.145203 0.457425 4.316333 9.376546 9.910502 -104.504680 4.081921 -6.344862 51.794863 -0.088204 5.840814 -18.496631 -0.031200 0.000000 -54.596600 -1.095556 -1.901389 -1.035309 -0.594157 -1.907846 -3.189675 -2.963056 -1.970114 -0.704661 3.318396 -6.180989 -6.751229 -1.116364 -0.047302 -0.602779 0.000000 0.000000 0.000000 5.739466 5.900694 3.527370 -53.659931 -4.795671 3.282085 0.126143 -89.292903 -0.058078 5.092158 9.817974 0.443931 -0.213807 0.268229 0.000000 0.000000 0.000000 0.000000 0.000000 0.000000 0.000000 -0.759417 -1.150708 0.912722 58.648506 22.791667 -0.966344 179.977776 89.624630 179.932454 -9.402278 7.302821 -0.661785 0.192154 -0.574438 0.000000 0.000000 0.000000 0.000000 0.000000 0.000000 0.000000 
2.579041 15.059570 1.875004 138.074585 -82.525857 -69.491403 -8.246638 2.158646 2.293998 -23.664884 -18.611692 -104.512768 -4.499949 6.630287 54.081857 0.721137 -1.767552 -14.743688 -0.099700 -0.000001 -42.715600 9.111447 0.524922 4.223582 9.342135 10.254292 -105.536733 3.778812 -6.631743 54.257185 -0.216618 5.652084 -19.441541 -0.026800 0.000000 -54.605401 -1.059962 -1.866883 -0.982166 -0.600254 -1.873830 -3.172716 -2.994400 -1.935713 -0.725297 3.366586 -6.176797 -6.909681 -1.169182 -0.048167 -0.660172 0.000000 0.000000 0.000000 5.440498 6.279169 3.522977 -53.886513 -4.687724 3.377113 0.102842 -89.060184 -0.062734 5.808288 9.481692 0.486749 -0.225684 0.274790 0.000000 0.000000 0.000000 0.000000 0.000000 0.000000 0.000000 -0.384324 -1.140163 0.970941 58.928675 22.570238 -0.857994 -0.000048 89.518466 -0.065835 -9.235574 7.240694 -0.644296 0.187519 -0.568752 0.000000 0.000000 0.000000 0.000000 0.000000 0.000000 0.000000 
2.487277 14.947852 1.875491 139.565672 -82.705513 -70.715142 -8.263573 2.076371 2.309227 -23.124276 -18.758369 -105.763487 -4.224807 6.833127 55.767931 0.822188 -1.473886 -15.222587 -0.133901 0.000000 -41.291300 9.064244 0.590979 4.121313 9.345901 10.600095 -106.532361 3.459631 -6.910881 56.787128 -0.355452 5.426736 -20.418690 -0.014000 0.000000 -54.552999 -0.981647 -1.831420 -0.913855 -0.597217 -1.840180 -3.150998 -3.036040 -1.901615 -0.742747 3.436591 -6.174667 -7.083800 -1.228642 -0.049338 -0.722013 0.000000 0.000000 0.000000 5.098022 6.707292 3.522906 -54.179627 -4.594447 3.504734 0.072868 -88.697994 -0.066719 6.441538 9.184345 0.520860 -0.235584 0.280019 0.000000 0.000000 0.000000 0.000000 0.000000 0.000000 0.000000 0.042825 -1.135344 1.027901 59.266286 22.238687 -0.725570 0.024810 88.566459 -0.064303 -9.095176 7.177244 -0.628609 0.182868 -0.562397 0.000000 0.000000 0.000000 0.000000 0.000000 0.000000 0.000000 
2.393837 14.830394 1.878166 141.087307 -82.907631 -72.014600 -8.279756 1.949346 2.307992 -22.465337 -18.820246 -106.980867 -3.906233 7.029789 57.659600 0.945625 -1.149769 -15.901647 -0.186600 0.000000 -39.583500 9.004374 0.657439 4.009083 9.383775 10.941192 -107.484410 3.126704 -7.180733 59.373268 -0.499358 5.182642 -21.423861 0.007000 0.000000 -54.459200 -0.865809 -1.796151 -0.829841 -0.586408 -1.807910 -3.124135 -3.088172 -1.868893 -0.755740 3.527709 -6.174184 -7.273562 -1.295376 -0.050874 -0.788308 0.000000 0.000000 0.000000 4.701043 7.185832 3.528303 -54.523598 -4.511953 3.659401 0.036626 -88.205981 -0.069922 6.977655 8.936819 0.547465 -0.243269 0.283612 0.000000 0.000000 0.000000 0.000000 0.000000 0.000000 0.000000 0.526313 -1.137085 1.084067 59.648958 21.805189 -0.571513 0.051986 87.507555 -0.062925 -8.982319 7.127030 -0.616023 0.178256 -0.555520 0.000000 0.000000 0.000000 0.000000 0.000000 0.000000 0.000000 
2.298437 14.707670 1.883297 142.726623 -83.136690 -73.471900 -8.298149 1.779086 2.293941 -21.705952 -18.792509 -108.166373 -3.556540 7.219469 59.725291 1.087681 -0.815916 -16.795525 -0.261300 -0.000000 -37.654400 8.930208 0.720051 3.889079 9.463328 11.289257 -108.382636 2.783943 -7.438619 61.996158 -0.644082 4.933504 -22.448627 0.035800 -0.000000 -54.348300 -0.707629 -1.758035 -0.735101 -0.566636 -1.774178 -3.093848 -3.151050 -1.834878 -0.764473 3.637230 -6.174650 -7.477378 -1.369913 -0.052869 -0.858487 0.000000 0.000000 0.000000 4.238112 7.703796 3.539086 -54.906189 -4.421590 3.830907 -0.005316 -87.589761 -0.072268 7.409970 8.743918 0.567564 -0.248611 0.285374 0.000000 0.000000 0.000000 0.000000 0.000000 0.000000 0.000000 1.067292 -1.143444 1.141524 60.059654 21.273286 -0.402506 0.081072 86.329525 -0.061630 -8.893444 7.107162 -0.607537 0.173737 -0.548312 0.000000 0.000000 0.000000 0.000000 0.000000 0.000000 0.000000 
2.201079 14.580621 1.890360 144.473302 -83.375479 -75.077339 -8.316402 1.576022 2.267245 -20.897082 -18.693481 -109.294120 -3.189584 7.400798 61.921482 1.245917 -0.481555 -17.902521 -0.360900 -0.000000 -35.590200 8.846819 0.785394 3.760543 9.569528 11.622667 -109.223111 2.432812 -7.684379 64.640434 -0.782214 4.699460 -23.474337 0.069300 -0.000000 -54.325700 -0.523935 -1.721657 -0.625249 -0.542298 -1.743044 -3.058237 -3.224177 -1.803635 -0.766999 3.769128 -6.179648 -7.697168 -1.452646 -0.055318 -0.933391 0.000000 0.000000 0.000000 3.706403 8.266279 3.555361 -55.309136 -4.328641 4.014540 -0.052971 -86.847250 -0.073765 7.740429 8.605829 0.582655 -0.251677 0.285290 0.000000 0.000000 0.000000 0.000000 0.000000 0.000000 0.000000 1.676374 -1.161122 1.201228 60.484792 20.665298 -0.222156 0.112015 85.011314 -0.060337 -8.823289 7.137094 -0.604352 0.169270 -0.540923 0.000000 0.000000 0.000000 0.000000 0.000000 0.000000 0.000000 
2.101729 14.450064 1.899259 146.374624 -83.621874 -76.873296 -8.336891 1.346795 2.230537 -20.068166 -18.532083 -110.365976 -2.814657 7.576239 64.216841 1.417021 -0.153211 -19.204205 -0.486600 -0.000000 -33.511900 8.755352 0.852034 3.625704 9.703674 11.943550 -110.000057 2.076825 -7.916796 67.284407 -0.909199 4.493495 -24.485615 0.104100 -0.000000 -54.403800 -0.317577 -1.686594 -0.503436 -0.514077 -1.714004 -3.018326 -3.307082 -1.774810 -0.763300 3.923951 -6.191195 -7.932551 -1.543447 -0.058240 -1.012911 0.000000 0.000000 0.000000 3.103707 8.864542 3.575894 -55.721933 -4.220661 4.200897 -0.106044 -85.982052 -0.074490 7.977501 8.516839 0.593743 -0.252601 0.283441 0.000000 0.000000 0.000000 0.000000 0.000000 0.000000 0.000000 2.356029 -1.192195 1.265204 60.909824 19.993179 -0.039453 0.144800 83.534395 -0.058964 -8.765352 7.232394 -0.607065 0.164856 -0.533483 0.000000 0.000000 0.000000 0.000000 0.000000 0.000000 0.000000 
2.000488 14.317006 1.909490 148.413271 -83.864645 -78.837540 -8.359314 1.102499 2.185304 -19.259022 -18.329677 -111.376923 -2.439096 7.748087 66.576807 1.598341 0.172554 -20.660970 -0.637900 -0.000000 -31.579500 8.660600 0.923051 3.487011 9.854797 12.239833 -110.715012 1.718011 -8.135954 69.907079 -1.020235 4.326201 -25.459832 0.135900 0.000000 -54.679800 -0.101900 -1.656131 -0.371147 -0.485331 -1.689933 -2.974260 -3.398839 -1.751363 -0.752531 4.105618 -6.212268 -8.184493 -1.641774 -0.061588 -1.097438 0.000000 0.000000 0.000000 2.435458 9.496506 3.599433 -56.133936 -4.093960 4.383145 -0.164556 -84.993806 -0.074418 8.134657 8.468139 0.601625 -0.251612 0.280017 -0.000000 0.000000 0.000000 0.000000 0.000000 0.000000 0.000000 3.111038 -1.241588 1.334519 61.325741 19.274716 0.136035 0.179589 81.878145 -0.057443 -8.713175 7.404114 -0.615979 0.160456 -0.526042 0.000000 0.000000 0.000000 0.000000 0.000000 0.000000 0.000000 
1.897359 14.182332 1.921180 150.698449 -84.112171 -81.071095 -8.388972 0.846247 2.134565 -18.476509 -18.083764 -112.350263 -2.064579 7.921556 68.983532 1.785589 0.495889 -22.225793 -0.812600 0.000000 -29.902900 8.560697 0.991760 3.347213 10.038130 12.530577 -111.358990 1.360685 -8.340149 72.483262 -1.115023 4.198047 -26.384911 0.162500 0.000000 -55.098500 0.129588 -1.625207 -0.233802 -0.454247 -1.665949 -2.928244 -3.498468 -1.728612 -0.736297 4.312163 -6.245192 -8.451458 -1.746328 -0.065318 -1.186433 0.000000 0.000000 0.000000 1.705657 10.146641 3.623343 -56.546089 -3.932543 4.550922 -0.228037 -83.882211 -0.073751 8.229292 8.445094 0.606903 -0.248917 0.275278 -0.000000 0.000000 0.000000 0.000000 0.000000 0.000000 0.000000 3.934282 -1.309077 1.411214 61.722539 18.512515 0.286814 0.216509 80.029701 -0.055775 -8.667539 7.654443 -0.631390 0.156189 -0.518611 0.000000 0.000000 0.000000 0.000000 0.000000 0.000000 0.000000 
1.792606 14.047181 1.933172 153.074459 -84.341192 -83.413201 -8.420569 0.594177 2.079100 -17.765811 -17.833604 -113.272027 -1.693924 8.096333 71.398721 1.976203 0.832700 -23.825557 -1.007900 -0.000000 -28.696600 8.465706 1.067366 3.209538 10.224194 12.782308 -111.946472 1.005201 -8.531703 74.996055 -1.190106 4.114742 -27.240478 0.179500 0.000000 -55.768700 0.349647 -1.602984 -0.092871 -0.427632 -1.650396 -2.879731 -3.604380 -1.714905 -0.712231 4.551980 -6.294092 -8.736110 -1.855823 -0.069294 -1.280826 0.000000 0.000000 0.000000 0.931930 10.822859 3.646629 -56.950767 -3.745850 4.704296 -0.296324 -82.640315 -0.072580 8.278800 8.437484 0.609976 -0.244823 0.269497 -0.000000 0.000000 0.000000 0.000000 0.000000 0.000000 0.000000 4.832096 -1.403612 1.494476 62.101190 17.730719 0.403519 0.255647 77.969001 -0.053953 -8.626397 7.977053 -0.652502 0.152013 -0.511012 0.000000 0.000000 0.000000 0.000000 0.000000 0.000000 0.000000 
